<svg xmlns="http://www.w3.org/2000/svg" width="66" height="33" viewBox="0 0 66 33">
  <path fill="#00BC75" fill-rule="evenodd" d="M8.44257703,0.101118901 C8.58739496,0.0398347184 8.65210084,0.0306420911 8.9047619,0.0398347184 C9.11736695,0.0459631366 9.23445378,0.0674126004 9.33613445,0.113375737 C9.41316527,0.147082037 10.9845938,1.22568364 12.8333333,2.51265147 C14.6789916,3.7996193 16.2535014,4.88128511 16.3305322,4.92111983 C16.6941176,5.10190817 17.1470588,5.09884396 17.519888,4.90886299 C17.5876751,4.87515669 19.1529412,3.79349088 21.0016807,2.50958726 C22.9521008,1.14907842 24.4280112,0.144017828 24.5266106,0.101118901 C24.729972,0.0183852547 25.0812325,0.00612841822 25.3184874,0.0766052277 C25.4386555,0.113375737 26.2490196,0.661869168 28.7232493,2.38089048 C30.5072829,3.62189517 32.0663866,4.70356098 32.1834734,4.78016621 C32.4669468,4.97014717 32.6271709,5.02836715 32.9106443,5.0467524 C33.2033613,5.06820187 33.4868347,4.99159664 33.754902,4.81693672 C33.8565826,4.75258833 35.4033613,3.68011514 37.1904762,2.43604624 C39.0823529,1.11843632 40.5120448,0.144017828 40.6106443,0.101118901 C40.8263305,0.0122568364 41.1960784,0.00612841822 41.4302521,0.0857978551 C41.5380952,0.122568364 42.6596639,0.888620642 44.9644258,2.49120201 C46.822409,3.78429825 48.4092437,4.87515669 48.492437,4.91805562 C48.8098039,5.07739449 49.2134454,5.09577975 49.5554622,4.96401876 C49.6787115,4.91805562 50.7540616,4.18570964 53.0834734,2.56474302 C54.9260504,1.28083941 56.5098039,0.189980965 56.6022409,0.13788941 C56.762465,0.0520915549 56.7901961,0.0459631366 57.1106443,0.0459631366 C57.4156863,0.0459631366 57.464986,0.055155764 57.6036415,0.125632573 C57.8809524,0.266586192 65.3591036,5.49106272 65.5254902,5.65653002 C65.8428571,5.97520776 66,6.37355495 66,6.85463578 C66,7.02010307 65.9784314,7.2315335 65.9537815,7.32345977 C65.6764706,8.36529087 64.4840336,8.90765588 63.4918768,8.4418961 C63.3994398,8.39899717 62.0683473,7.48586285 60.5277311,6.41338967 C58.9871148,5.34091648 57.6591036,4.42778216 57.5728291,4.38488324 C57.4372549,4.31440643 57.3817927,4.3052138 57.1260504,4.3052138 C56.894958,4.3052138 56.8056022,4.31747063 56.6946779,4.36956219 C56.6176471,4.40326849 55.0431373,5.48493431 53.197479,6.77190213 C51.3487395,8.05886996 49.7495798,9.1497284 49.6417367,9.20181995 C49.4845938,9.27536097 49.3952381,9.29681044 49.1641457,9.30906727 C48.8190476,9.32745253 48.6002801,9.27229676 48.3291317,9.10376526 C48.227451,9.04248108 46.6837535,7.9730721 44.8966387,6.7290032 C43.1095238,5.48493431 41.5781513,4.43084637 41.4918768,4.38488324 C41.3532213,4.31440643 41.2977591,4.3052138 41.0420168,4.3052138 C40.7831933,4.3052138 40.7277311,4.31440643 40.5798319,4.39101165 C40.487395,4.43697479 38.9128852,5.5155764 37.0826331,6.79028739 C35.252381,8.06499838 33.6686275,9.1497284 33.5607843,9.20181995 C33.212605,9.36422304 32.7319328,9.35503041 32.3745098,9.17424207 C32.2943978,9.13440735 30.7291317,8.05886996 28.9019608,6.78722318 C27.0747899,5.5155764 25.5033613,4.43391058 25.4140056,4.38794744 C25.2691877,4.31440643 25.2168067,4.3052138 24.9579832,4.3052138 C24.7238095,4.3052138 24.637535,4.31747063 24.5266106,4.36956219 C24.4495798,4.4063327 22.8781513,5.48493431 21.0294118,6.77190213 C19.1837535,8.05886996 17.6092437,9.14053577 17.5322129,9.18037049 C17.122409,9.3856725 16.5585434,9.35503041 16.1672269,9.10989368 C16.0994398,9.06699475 14.5434174,7.98839315 12.710084,6.71368216 C10.0263305,4.8445146 9.34537815,4.38488324 9.20056022,4.3389201 C8.97563025,4.26844329 8.64285714,4.28376433 8.44257703,4.3726264 C8.36554622,4.4063327 7.07142857,5.29495334 5.56162465,6.34597706 C4.05182073,7.39393658 2.72997199,8.30707089 2.61904762,8.37141929 C2.38795518,8.50624449 2.00588235,8.6104276 1.75938375,8.6104276 C0.98907563,8.60736339 0.301960784,8.11402572 0.0770308123,7.40925763 C0.0154061625,7.21927666 2.97501797e-16,7.10283671 2.68982236e-16,6.86995682 C2.05938994e-16,6.35516969 0.144817927,5.9874646 0.477591036,5.65346581 C0.705602241,5.42365012 8.18683473,0.208366219 8.44257703,0.101118901 Z M8.62745098,9.27229676 C8.85238095,9.21407679 9.27759104,9.21101258 9.50560224,9.26923255 C10.1187675,9.42550722 10.6056022,9.90352384 10.7719888,10.5102372 C10.8151261,10.6695761 10.827451,10.828915 10.827451,11.2916106 C10.827451,11.7543061 10.8151261,11.913645 10.7719888,12.0729839 C10.6887955,12.3763406 10.5439776,12.6184131 10.3067227,12.8543572 C9.96162465,13.1975486 9.56414566,13.3599517 9.07422969,13.3599517 C8.58431373,13.3599517 8.18683473,13.1975486 7.83865546,12.8543572 C7.60756303,12.6245415 7.45966387,12.3732764 7.37955182,12.0729839 C7.31484594,11.8370398 7.31484594,10.7461813 7.37955182,10.5102372 C7.53669468,9.91578068 8.02969188,9.42857143 8.62745098,9.27229676 Z M42.2282913,12.6245415 C42.4378151,12.587771 42.8291317,12.6184131 43.0571429,12.6888899 C43.6240896,12.8635498 44.0985994,13.3568875 44.264986,13.9421514 C44.2988796,14.0647198 44.3173669,14.3190492 44.3296919,14.8675426 L44.3481793,15.621338 L45.2140056,15.6335949 C45.9966387,15.6458517 46.0983193,15.6550443 46.2831933,15.7132643 C46.822409,15.8909884 47.2445378,16.3444914 47.3739496,16.8899206 C47.5403361,17.5885603 47.2106443,18.3209063 46.5759104,18.6732903 C46.2554622,18.8510144 46.0952381,18.8755281 45.180112,18.8755281 L44.3697479,18.8755281 L44.3697479,20.9499977 C44.3697479,22.141975 44.3820728,23.1715493 44.4005602,23.3645945 C44.4467787,23.8487395 44.5638655,24.3236919 44.7056022,24.617856 C44.9151261,25.0499095 45.1431373,25.2521473 45.8271709,25.6198524 C46.1168067,25.776127 46.2338936,25.8588607 46.3879552,26.0212638 C46.7731092,26.4257394 46.9086835,26.9068202 46.7885154,27.4645062 C46.729972,27.7464135 46.6098039,27.9547797 46.372549,28.193788 C46.0305322,28.5400436 45.7316527,28.6503552 45.152381,28.6503552 C44.5176471,28.6503552 43.9445378,28.5124658 43.3745098,28.2244301 C42.992437,28.0313849 42.7243697,27.841404 42.4008403,27.5319188 C41.8,26.9589117 41.3717087,26.2602721 41.0789916,25.3716514 C40.8817927,24.7741306 40.792437,24.3451414 40.7154062,23.6250522 C40.6784314,23.2879892 40.6630252,22.6598264 40.6507003,21.0266029 L40.6322129,18.8755281 L40.3518207,18.8755281 C39.8218487,18.8755281 39.4459384,18.7284461 39.110084,18.3944473 C38.3243697,17.6161382 38.5462185,16.2985283 39.547619,15.8082548 C39.812605,15.679558 40.0621849,15.6305307 40.4442577,15.6274665 L40.6630252,15.6274665 L40.6815126,15.3731371 C40.6938375,15.2352477 40.7030812,14.9135057 40.7030812,14.6591764 C40.7030812,14.3006639 40.7154062,14.1443892 40.7647059,13.9605367 C40.9434174,13.2557686 41.494958,12.7563025 42.2282913,12.6245415 Z M32.7997199,15.4773202 C33.3266106,15.4405497 33.5114846,15.4405497 34.0322129,15.474256 C34.7593838,15.5232833 35.5728291,15.6611728 35.9579832,15.8051906 C36.7036415,16.0809694 37.0487395,16.7918659 36.8053221,17.5487256 C36.7128852,17.8398254 36.564986,18.0420632 36.3,18.2381726 C36.0473389,18.4250894 35.8193277,18.5108872 35.5112045,18.5292725 C35.3047619,18.5415293 35.1969188,18.5292725 34.8518207,18.4465388 C34.0352941,18.2565579 33.4282913,18.2228516 32.9568627,18.3423557 C32.4453782,18.4741167 32.1619048,18.7897303 32.1557423,19.2279122 C32.1495798,19.856075 32.5408964,20.1563675 34.0784314,20.7140536 C34.9565826,21.0296671 35.464986,21.2717396 35.9579832,21.6057384 C37.2028011,22.4483959 37.7789916,23.606667 37.6803922,25.0652305 C37.612605,26.0457774 37.267507,26.7995729 36.5803922,27.461442 C35.6960784,28.3071637 34.4882353,28.7698593 32.8151261,28.8985561 C31.2313725,29.0211245 29.1053221,28.6871257 28.559944,28.2305585 C28.3165266,28.0252565 28.1254902,27.666744 28.070028,27.3112958 C27.977591,26.7229676 28.3226891,26.1039974 28.9019608,25.819026 C29.3394958,25.6075955 29.647619,25.6014671 30.3254902,25.7975765 C31.6781513,26.186731 32.8921569,26.1468963 33.3943978,25.6933934 C33.5885154,25.5217977 33.662465,25.3379451 33.662465,25.0345884 C33.662465,24.8017085 33.6501401,24.749617 33.5607843,24.5688286 C33.4991597,24.4431961 33.4098039,24.3206277 33.3296919,24.2532151 C33.1417367,24.0938762 32.5439776,23.811969 31.8907563,23.5790891 C31.105042,23.2971819 30.9170868,23.2205766 30.4918768,23.006082 C29.2809524,22.405497 28.5168067,21.6149311 28.242577,20.6772831 C27.9806723,19.7794698 28.1162465,18.6150703 28.5784314,17.8030549 C29.3364146,16.470124 30.8893557,15.6152096 32.7997199,15.4773202 Z M54.7226891,15.6152096 C54.9322129,15.5845675 55.7703081,15.6029528 56.1092437,15.6427875 C58.9008403,15.9798505 61.1778711,17.8888528 61.8372549,20.441339 C62.2809524,22.1603603 61.9759104,24.0295278 61.0084034,25.4942198 C59.7481793,27.4001579 57.6344538,28.5247226 55.3019608,28.5277868 C54.2296919,28.5277868 53.237535,28.3010353 52.2946779,27.8383398 C50.3257703,26.8700497 49.0162465,25.1050652 48.6310924,22.9049631 C48.5540616,22.4453317 48.5602241,21.5475185 48.6464986,21.0756303 C48.9330532,19.5128836 49.6941176,18.1922095 50.8803922,17.1963415 C51.8355742,16.3935187 53.1728291,15.8051906 54.3683473,15.6611728 C54.522409,15.6427875 54.6795518,15.621338 54.7226891,15.6152096 Z M56.007563,18.6487766 C54.3036415,18.2228516 52.627451,19.2922606 52.2084034,21.0695018 C52.1282913,21.4035006 52.1252101,22.3442128 52.2053221,22.6659548 C52.5442577,24.0693626 53.5826331,25.0008821 54.9876751,25.1571568 C56.3619048,25.307303 57.7053221,24.4401319 58.2044818,23.079623 C58.5341737,22.1756813 58.4817927,21.2165839 58.0535014,20.3310274 C57.637535,19.4730489 56.9072829,18.8724639 56.007563,18.6487766 Z M23.5591036,15.8909884 C23.802521,15.8327685 24.2246499,15.8327685 24.4495798,15.8879242 C24.9672269,16.0196852 25.4016807,16.3720693 25.6327731,16.8439575 C25.829972,17.2453689 25.829972,17.2147268 25.8084034,19.9480013 C25.7837535,23.0888156 25.7344538,26.318492 25.7005602,26.9497191 C25.6697479,27.5104694 25.6235294,27.6728725 25.3985994,28.0129997 C25.0812325,28.4940805 24.4927171,28.7759877 23.894958,28.7300246 C23.457423,28.6963183 23.1215686,28.5400436 22.8134454,28.2336227 C22.6131653,28.0344491 22.4313725,27.7157714 22.3728291,27.461442 C22.357423,27.387901 22.3389356,27.3204884 22.3296919,27.31436 C22.3235294,27.3051674 22.2403361,27.3633873 22.1509804,27.4399926 C21.5008403,27.9946144 20.5918768,28.4082827 19.6428571,28.5768142 C19.2669468,28.6442268 18.3487395,28.6534194 17.9789916,28.5921352 C17.2394958,28.4756953 16.5462185,28.2152375 15.9453782,27.8291471 C15.6619048,27.6483588 15.480112,27.5012768 15.1504202,27.182599 C14.2291317,26.2939784 13.7114846,25.2644041 13.4773109,23.8548679 C13.3787115,23.2573471 13.3879552,19.6109383 13.4957983,17.8735317 C13.5296919,17.3434236 13.6036415,17.0615163 13.7915966,16.7704165 C14.0226891,16.4088398 14.4294118,16.1177399 14.8546218,16.0074284 C15.1442577,15.9308232 15.5848739,15.9400158 15.837535,16.0258136 C16.4383754,16.2249872 16.8635854,16.6478481 17.0392157,17.2116626 C17.1563025,17.5824319 17.2240896,19.224848 17.2240896,21.6792794 C17.2240896,22.8773852 17.2333333,23.2726682 17.2703081,23.4871628 C17.3689076,24.0938762 17.519888,24.412554 17.8865546,24.7771949 C18.0991597,24.9916895 18.1792717,25.0468453 18.4565826,25.1816705 C18.9187675,25.4022935 19.2392157,25.4758345 19.719888,25.4727703 C20.2960784,25.4727703 20.6504202,25.3624588 21.0971989,25.043781 C21.5501401,24.7251033 21.907563,24.0877478 22.0431373,23.3554018 C22.132493,22.8773852 22.2156863,20.6834115 22.2156863,18.7836018 C22.2156863,17.2147268 22.2187675,17.1902131 22.4067227,16.8010585 C22.6070028,16.3904545 23.1,16.0013 23.5591036,15.8909884 Z M8.67058824,15.9185663 C9.07422969,15.8297043 9.50252101,15.8817958 9.87843137,16.0595199 C10.1680672,16.1974094 10.5501401,16.5743071 10.6857143,16.8531501 C10.8736695,17.2392404 10.8767507,17.2606899 10.907563,19.181949 C10.947619,21.5230048 10.9445378,26.1377037 10.907563,26.977297 C10.8089636,29.0824087 10.3929972,30.4245322 9.50868347,31.4878128 C8.91708683,32.1987093 8.13445378,32.6675333 7.14845938,32.9004132 C6.88039216,32.9616974 6.72016807,32.9800826 6.22408964,32.9923395 C5.26582633,33.0168532 4.8745098,32.9218627 4.47703081,32.560286 C4.13809524,32.2538651 3.96246499,31.8524537 3.96554622,31.3928223 C3.96554622,30.9515762 4.11652661,30.5930637 4.42464986,30.289707 C4.64957983,30.069084 4.8745098,29.9618367 5.39831933,29.8178188 C5.90980392,29.6768652 6.21176471,29.5696179 6.39663866,29.4623706 C6.86190476,29.189656 7.08991597,28.5921352 7.17619048,27.4246715 C7.19467787,27.1979201 7.2162465,25.0529737 7.2254902,22.6598264 C7.23473389,20.266679 7.25630252,18.0727053 7.26862745,17.7877339 C7.29943978,17.2116626 7.35182073,17.0063606 7.54593838,16.7030039 C7.78627451,16.3352988 8.25154062,16.0104926 8.67058824,15.9185663 Z"/>
</svg>
